<svg width="132" height="44" viewBox="0 0 132 44" fill="none" xmlns="http://www.w3.org/2000/svg">
<mask id="mask0_6630_18564" style="mask-type:luminance" maskUnits="userSpaceOnUse" x="0" y="0" width="132" height="44">
<path d="M132 0H0V44H132V0Z" fill="white"/>
</mask>
<g mask="url(#mask0_6630_18564)">
<path d="M121.488 0H10.5181C10.1133 0 9.71416 -1.2285e-06 9.31052 0.00223499C8.97285 0.00447121 8.6374 0.011181 8.29638 0.0156535C7.55619 0.0245984 6.81713 0.0894443 6.08589 0.2102C5.35688 0.33431 4.64911 0.566874 3.98943 0.900071C3.32974 1.23662 2.7282 1.67493 2.20381 2.19708C1.67718 2.71812 1.23887 3.31967 0.904558 3.98047C0.569125 4.63904 0.336553 5.34457 0.214679 6.07358C0.0916866 6.80147 0.0257159 7.53829 0.016771 8.27625C0.00670798 8.6128 0.00559055 8.95159 0 9.28926V34.714C0.00559055 35.0561 0.00670798 35.3871 0.016771 35.7281C0.0257159 36.4661 0.0916866 37.2029 0.214679 37.9308C0.336553 38.6598 0.569125 39.3664 0.904558 40.025C1.23887 40.6836 1.67718 41.2829 2.20381 41.8006C2.72596 42.3261 3.32862 42.7632 3.98943 43.0976C4.64911 43.4319 5.35688 43.6667 6.08589 43.7919C6.81713 43.9115 7.55619 43.9764 8.29638 43.9865C8.6374 43.9932 8.97285 43.9976 9.31052 43.9976C9.71416 43.9999 10.1133 43.9999 10.5181 43.9999H121.488C121.885 43.9999 122.288 43.9999 122.685 43.9976C123.02 43.9976 123.366 43.9932 123.701 43.9865C124.44 43.9764 125.178 43.9115 125.907 43.7919C126.639 43.6656 127.349 43.4319 128.012 43.0976C128.673 42.7632 129.275 42.3261 129.796 41.8006C130.321 41.2806 130.762 40.6813 131.1 40.025C131.433 39.3653 131.663 38.6598 131.783 37.9308C131.906 37.2029 131.974 36.4672 131.987 35.7281C131.992 35.3871 131.992 35.0561 131.992 34.714C132.001 34.3148 132.001 33.9179 132.001 33.5109V10.4901C132.001 10.0865 132.001 9.68731 131.992 9.28926C131.992 8.95159 131.992 8.6128 131.987 8.27625C131.974 7.53717 131.906 6.80147 131.783 6.07358C131.663 5.34569 131.433 4.63904 131.1 3.98047C130.419 2.65663 129.34 1.57988 128.012 0.900071C127.349 0.566874 126.639 0.33431 125.907 0.2102C125.178 0.0894443 124.441 0.0245984 123.701 0.0156535C123.366 0.011181 123.02 0.00447121 122.685 0.00223499C122.288 -1.2285e-06 121.885 0 121.488 0Z" fill="#181818"/>
<path d="M9.31615 43.0371C8.9796 43.0371 8.652 43.0327 8.3188 43.026C7.62781 43.017 6.93906 42.9566 6.25701 42.846C5.62081 42.7375 5.00472 42.534 4.42889 42.2433C3.85865 41.9559 3.33874 41.578 2.88814 41.1252C2.43084 40.6779 2.05068 40.1591 1.7622 39.5889C1.47038 39.0153 1.268 38.4003 1.1629 37.7664C1.04997 37.0843 0.988474 36.3945 0.979529 35.7035C0.972821 35.472 0.963867 34.6994 0.963867 34.6994V9.28922C0.963867 9.28922 0.972821 8.52778 0.979529 8.30527C0.988474 7.61428 1.04885 6.92665 1.1629 6.24572C1.268 5.60951 1.47038 4.99231 1.7622 4.4176C2.04956 3.84737 2.42749 3.32857 2.88144 2.87908C3.33539 2.42625 3.85754 2.04609 4.42889 1.75426C5.00248 1.46579 5.61746 1.26341 6.25254 1.15608C6.93683 1.04426 7.62781 0.985001 8.32104 0.976056L9.31615 0.962646H122.679L123.687 0.976056C124.373 0.985001 125.058 1.04427 125.736 1.15496C126.378 1.26341 126.998 1.46691 127.58 1.75762C128.725 2.34575 129.656 3.27713 130.243 4.41984C130.531 4.99119 130.73 5.6028 130.834 6.23342C130.949 6.91994 131.012 7.61429 131.026 8.30975C131.029 8.62059 131.029 8.95602 131.029 9.28922C131.037 9.7018 131.037 10.0943 131.037 10.4901V33.5108C131.037 33.9111 131.037 34.3013 131.029 34.6938C131.029 35.0516 131.029 35.3792 131.025 35.7169C131.011 36.4 130.949 37.081 130.836 37.7552C130.733 38.3947 130.532 39.0142 130.24 39.5922C129.949 40.1558 129.571 40.6701 129.119 41.1162C128.669 41.5724 128.148 41.9515 127.576 42.2411C126.997 42.534 126.377 42.7375 125.736 42.846C125.054 42.9578 124.365 43.017 123.674 43.026C123.351 43.0327 123.013 43.0371 122.685 43.0371L121.488 43.0394L9.31615 43.0371Z" fill="#181818"/>
<path d="M27.3234 22.331C27.3346 21.413 27.5794 20.5129 28.0345 19.7135C28.4884 18.9151 29.1381 18.2443 29.923 17.7635C29.4243 17.0535 28.7669 16.4698 28.0032 16.0584C27.2384 15.6458 26.3886 15.4177 25.5199 15.3898C23.6672 15.1963 21.8715 16.4956 20.9278 16.4956C19.9662 16.4956 18.5127 15.4099 16.9473 15.4412C15.9354 15.4736 14.9493 15.7677 14.0838 16.2932C13.2195 16.8198 12.5062 17.56 12.0131 18.4422C9.87974 22.1252 11.4719 27.538 13.5147 30.5156C14.5378 31.9736 15.7319 33.6027 17.2962 33.5445C18.8258 33.4808 19.3971 32.5718 21.2442 32.5718C23.0746 32.5718 23.6101 33.5445 25.2057 33.5076C26.8471 33.4808 27.8813 32.0429 28.8686 30.5715C29.6032 29.5327 30.1679 28.3844 30.5435 27.1702C29.5898 26.7676 28.7758 26.0945 28.2033 25.2336C27.6297 24.3727 27.3245 23.3641 27.3234 22.331Z" fill="white"/>
<path d="M24.3104 13.4316C25.206 12.3605 25.6465 10.983 25.5403 9.59204C24.1728 9.73516 22.9094 10.387 22.0015 11.4179C21.5587 11.9211 21.2188 12.507 21.0019 13.1409C20.7861 13.776 20.6966 14.4469 20.7402 15.1155C21.4245 15.1222 22.101 14.9746 22.7193 14.6828C23.3376 14.391 23.8821 13.9639 24.3104 13.4316Z" fill="white"/>
<path d="M46.6623 29.8534H41.4407L40.1862 33.5454H37.9746L42.92 19.8855H45.2177L50.1642 33.5454H47.9146L46.6623 29.8534ZM41.9808 28.1495H46.12L44.0795 22.1575H44.0225L41.9808 28.1495Z" fill="white"/>
<path d="M60.8453 28.5666C60.8453 31.6615 59.1838 33.6495 56.6781 33.6495C56.043 33.6831 55.4113 33.5366 54.8556 33.2291C54.2999 32.9205 53.8426 32.4632 53.5351 31.9075H53.4881V36.8406H51.4375V23.5865H53.4222V25.2424H53.4602C53.7811 24.6901 54.2462 24.235 54.8064 23.9242C55.3654 23.6145 55.9994 23.4613 56.6401 23.4825C59.1748 23.4825 60.8453 25.4806 60.8453 28.5666ZM58.7388 28.5666C58.7388 26.5506 57.6933 25.2246 56.0989 25.2246C54.5324 25.2246 53.4792 26.5786 53.4792 28.5666C53.4792 30.5736 54.5324 31.9176 56.0989 31.9176C57.6933 31.9176 58.7388 30.6016 58.7388 28.5666Z" fill="white"/>
<path d="M71.8365 28.5666C71.8365 31.6615 70.1761 33.6495 67.6693 33.6495C67.0342 33.6831 66.4025 33.5377 65.8468 33.2291C65.2911 32.9205 64.8338 32.4632 64.5263 31.9075H64.4793V36.8406H62.4287V23.5865H64.4134V25.2436H64.4514C64.7723 24.6901 65.2374 24.235 65.7976 23.9242C66.3578 23.6145 66.9906 23.4613 67.6313 23.4825C70.166 23.4825 71.8365 25.4806 71.8365 28.5666ZM69.73 28.5666C69.73 26.5506 68.6845 25.2246 67.0901 25.2246C65.5236 25.2246 64.4704 26.5786 64.4704 28.5666C64.4704 30.5736 65.5236 31.9176 67.0901 31.9176C68.6845 31.9176 69.73 30.6016 69.73 28.5666Z" fill="white"/>
<path d="M79.102 29.7393C79.254 31.0945 80.5734 31.9834 82.3769 31.9834C84.1055 31.9834 85.3477 31.0945 85.3477 29.8724C85.3477 28.8124 84.5986 28.1773 82.8231 27.7424L81.0475 27.3164C78.5328 26.7104 77.3645 25.5375 77.3645 23.6333C77.3645 21.2764 79.424 19.6584 82.349 19.6584C85.2438 19.6584 87.2284 21.2764 87.2944 23.6333H85.2259C85.1017 22.2704 83.9713 21.4474 82.3199 21.4474C80.6684 21.4474 79.5391 22.2804 79.5391 23.4913C79.5391 24.4574 80.2603 25.0254 82.0258 25.4603L83.5353 25.8304C86.3462 26.4935 87.5135 27.6194 87.5135 29.6175C87.5135 32.1723 85.4719 33.7735 82.2249 33.7735C79.187 33.7735 77.1363 32.2104 77.0044 29.7393H79.102Z" fill="white"/>
<path d="M91.9368 21.2295V23.5865H93.8365V25.2055H91.9368V30.6954C91.9368 31.5485 92.3169 31.9466 93.1522 31.9466C93.378 31.9421 93.6028 31.9265 93.8264 31.8985V33.5075C93.4507 33.5779 93.0694 33.6092 92.6881 33.6025C90.6655 33.6025 89.8772 32.8456 89.8772 30.9135V25.2055H88.4248V23.5865H89.8772V21.2295H91.9368Z" fill="white"/>
<path d="M94.9377 28.5667C94.9377 25.4337 96.7882 23.4647 99.6741 23.4647C102.57 23.4647 104.412 25.4337 104.412 28.5667C104.412 31.7086 102.579 33.6697 99.6741 33.6697C96.7692 33.6697 94.9377 31.7086 94.9377 28.5667ZM102.323 28.5667C102.323 26.4177 101.334 25.1486 99.6741 25.1486C98.0126 25.1486 97.0264 26.4266 97.0264 28.5667C97.0264 30.7246 98.0126 31.9836 99.6741 31.9836C101.334 31.9836 102.323 30.7246 102.323 28.5667Z" fill="white"/>
<path d="M106.099 23.5864H108.054V25.2814H108.101C108.233 24.7526 108.545 24.2841 108.982 23.9565C109.42 23.6289 109.957 23.4611 110.504 23.4824C110.74 23.4813 110.976 23.507 111.206 23.5584V25.4704C110.908 25.3798 110.597 25.3384 110.285 25.3474C109.988 25.3351 109.69 25.3877 109.415 25.5006C109.139 25.6135 108.892 25.7846 108.688 26.0026C108.486 26.2206 108.332 26.4789 108.239 26.7618C108.146 27.0436 108.115 27.3432 108.148 27.6384V33.5454H106.099V23.5864Z" fill="white"/>
<path d="M120.661 30.6206C120.385 32.4286 118.62 33.6697 116.361 33.6697C113.456 33.6697 111.653 31.7287 111.653 28.6136C111.653 25.4907 113.465 23.4647 116.275 23.4647C119.038 23.4647 120.775 25.3566 120.775 28.3766V29.0765H113.722V29.2006C113.69 29.5674 113.736 29.9363 113.856 30.2841C113.978 30.6307 114.173 30.9493 114.427 31.2155C114.68 31.4827 114.989 31.6918 115.33 31.8315C115.672 31.9702 116.04 32.035 116.408 32.0216C116.893 32.0663 117.378 31.9545 117.794 31.703C118.21 31.4503 118.532 31.0701 118.715 30.6206H120.661ZM113.731 27.6487H118.725C118.743 27.3188 118.692 26.989 118.577 26.6793C118.462 26.3707 118.283 26.0878 118.054 25.8508C117.823 25.6137 117.547 25.4259 117.241 25.3007C116.935 25.1743 116.606 25.1139 116.275 25.1206C115.941 25.1184 115.61 25.1821 115.301 25.3085C114.992 25.4348 114.712 25.6215 114.475 25.8564C114.239 26.0912 114.051 26.3707 113.923 26.6782C113.796 26.9856 113.731 27.3155 113.731 27.6487Z" fill="white"/>
<path d="M41.7279 9.60459C42.1573 9.57329 42.5889 9.63813 42.9903 9.79355C43.3928 9.94897 43.754 10.1916 44.0503 10.5036C44.3466 10.8155 44.5702 11.189 44.7044 11.5982C44.8374 12.0063 44.8788 12.439 44.8251 12.865C44.8251 14.9626 43.6891 16.1679 41.7279 16.1679H39.3508V9.60459H41.7279ZM40.3728 15.2399H41.6139C41.9214 15.2578 42.2277 15.2074 42.514 15.0923C42.7991 14.9771 43.054 14.8005 43.262 14.5746C43.47 14.3476 43.6254 14.0782 43.7159 13.7852C43.8054 13.4923 43.8289 13.1825 43.7842 12.8784C43.8255 12.5765 43.7998 12.2691 43.7081 11.9772C43.6164 11.6865 43.4621 11.4193 43.2542 11.1945C43.0462 10.9709 42.7924 10.7943 42.5084 10.6802C42.2244 10.565 41.9191 10.5147 41.6139 10.5315H40.3728V15.2399Z" fill="white"/>
<path d="M45.9787 13.6891C45.9474 13.3637 45.9843 13.035 46.0883 12.7241C46.1911 12.4144 46.3588 12.1293 46.5791 11.8867C46.8005 11.6452 47.0688 11.4517 47.3685 11.3198C47.6681 11.1867 47.9924 11.1185 48.3211 11.1185C48.6487 11.1185 48.973 11.1867 49.2726 11.3198C49.5723 11.4517 49.8418 11.6452 50.062 11.8867C50.2823 12.1293 50.45 12.4144 50.554 12.7241C50.6569 13.035 50.6949 13.3637 50.6636 13.6891C50.6949 14.0144 50.658 14.3432 50.5551 14.654C50.4511 14.9648 50.2845 15.2511 50.0643 15.4937C49.8429 15.7363 49.5745 15.9298 49.2738 16.0617C48.9741 16.1948 48.6487 16.263 48.3211 16.263C47.9924 16.263 47.6681 16.1948 47.3674 16.0617C47.0677 15.9298 46.7983 15.7363 46.578 15.4937C46.3566 15.2511 46.19 14.9648 46.0871 14.654C45.9832 14.3432 45.9463 14.0144 45.9787 13.6891ZM49.655 13.6891C49.655 12.6157 49.1709 11.9873 48.3222 11.9873C47.4702 11.9873 46.9906 12.6157 46.9906 13.6891C46.9906 14.7714 47.4702 15.3942 48.3222 15.3942C49.1709 15.3942 49.655 14.7669 49.655 13.6891Z" fill="white"/>
<path d="M56.8918 16.1677H55.8754L54.849 12.5193H54.7707L53.7488 16.1677H52.7414L51.3728 11.2145H52.3668L53.2568 14.9937H53.3295L54.3515 11.2145H55.2918L56.3126 14.9937H56.3898L57.2753 11.2145H58.2559L56.8918 16.1677Z" fill="white"/>
<path d="M59.4084 11.2147H60.3521V12.0007H60.4259C60.55 11.7189 60.7591 11.4819 61.0252 11.3231C61.2913 11.1655 61.5999 11.0939 61.9074 11.1185C62.1501 11.1006 62.3927 11.1364 62.6174 11.2247C62.8433 11.3131 63.0468 11.4506 63.2111 11.6273C63.3766 11.805 63.4996 12.0164 63.5723 12.2467C63.6438 12.4781 63.6629 12.7219 63.6271 12.9612V16.1679H62.6465V13.206C62.6465 12.4099 62.2999 12.0141 61.5753 12.0141C61.411 12.0074 61.2466 12.0354 61.0946 12.0957C60.9425 12.1572 60.805 12.2512 60.6932 12.3708C60.5802 12.4893 60.4941 12.6313 60.4427 12.7867C60.3901 12.9422 60.3711 13.1065 60.389 13.2698V16.1679H59.4084V11.2147Z" fill="white"/>
<path d="M65.1868 9.2804H66.1673V16.168H65.1868V9.2804Z" fill="white"/>
<path d="M67.5325 13.6891C67.5012 13.3637 67.5381 13.035 67.6421 12.7241C67.7461 12.4144 67.9127 12.1293 68.1341 11.8867C68.3544 11.6452 68.6227 11.4517 68.9235 11.3198C69.2231 11.1867 69.5474 11.1185 69.875 11.1185C70.2037 11.1185 70.528 11.1867 70.8276 11.3198C71.1273 11.4517 71.3956 11.6452 71.617 11.8867C71.8373 12.1293 72.005 12.4144 72.1078 12.7241C72.2118 13.035 72.2487 13.3637 72.2174 13.6891C72.2499 14.0144 72.2129 14.3432 72.109 14.654C72.0061 14.9648 71.8384 15.2511 71.6181 15.4937C71.3978 15.7363 71.1284 15.9298 70.8287 16.0617C70.5279 16.1948 70.2037 16.263 69.875 16.263C69.5474 16.263 69.222 16.1948 68.9223 16.0617C68.6216 15.9298 68.3532 15.7363 68.1319 15.4937C67.9116 15.2511 67.7439 14.9648 67.641 14.654C67.5381 14.3432 67.5012 14.0144 67.5325 13.6891ZM71.2089 13.6891C71.2089 12.6157 70.7259 11.9873 69.8761 11.9873C69.0241 11.9873 68.5455 12.6157 68.5455 13.6891C68.5455 14.7714 69.0241 15.3942 69.8761 15.3942C70.7259 15.3942 71.2089 14.7669 71.2089 13.6891Z" fill="white"/>
<path d="M73.2473 14.7669C73.2473 13.8747 73.9137 13.3615 75.0944 13.2877L76.4406 13.2105V12.7834C76.4406 12.2601 76.094 11.9649 75.4231 11.9649C74.8764 11.9649 74.4973 12.1651 74.3878 12.5151H73.4396C73.5391 11.6642 74.3419 11.1185 75.469 11.1185C76.7146 11.1185 77.4168 11.7369 77.4168 12.7834V16.1679H76.4731V15.4713H76.3948C76.2383 15.7207 76.0169 15.9253 75.7541 16.0617C75.4925 16.1981 75.1984 16.263 74.9032 16.2495C74.6953 16.2708 74.484 16.2484 74.2849 16.1836C74.0848 16.1198 73.9014 16.0136 73.746 15.8739C73.5894 15.7352 73.4642 15.5641 73.3792 15.3729C73.2931 15.1829 73.2484 14.976 73.2473 14.7669ZM76.4406 14.3432V13.9295L75.2275 14.0066C74.5432 14.0525 74.2335 14.285 74.2335 14.7211C74.2335 15.1672 74.6215 15.4266 75.1548 15.4266C75.3102 15.4423 75.4679 15.4266 75.6188 15.3797C75.7687 15.3338 75.9073 15.2578 76.0281 15.1572C76.1477 15.0554 76.2461 14.9313 76.3165 14.7915C76.3881 14.6529 76.4294 14.4997 76.4406 14.3432Z" fill="white"/>
<path d="M78.7051 13.6891C78.7051 12.1238 79.5124 11.132 80.7669 11.132C81.0777 11.1174 81.3852 11.1924 81.6547 11.3455C81.9252 11.4998 82.1455 11.7268 82.2898 12.0008H82.3635V9.2804H83.3441V16.168H82.4049V15.3853H82.3267C82.1701 15.657 81.9432 15.8817 81.6681 16.0338C81.393 16.1858 81.0811 16.2608 80.7669 16.2496C79.5034 16.2496 78.7051 15.2578 78.7051 13.6891ZM79.7181 13.6891C79.7181 14.739 80.2145 15.3719 81.0453 15.3719C81.8716 15.3719 82.3815 14.7301 82.3815 13.6936C82.3815 12.6604 81.866 12.0108 81.0453 12.0108C80.2201 12.0108 79.7181 12.647 79.7181 13.6891Z" fill="white"/>
<path d="M87.4018 13.6891C87.3705 13.3637 87.4074 13.035 87.5114 12.7241C87.6142 12.4144 87.7819 12.1293 88.0022 11.8867C88.2225 11.6452 88.492 11.4517 88.7916 11.3198C89.0913 11.1867 89.4155 11.1185 89.7442 11.1185C90.0718 11.1185 90.3961 11.1867 90.6957 11.3198C90.9954 11.4517 91.2649 11.6452 91.4851 11.8867C91.7054 12.1293 91.8731 12.4144 91.976 12.7241C92.08 13.035 92.1169 13.3637 92.0867 13.6891C92.118 14.0144 92.0811 14.3432 91.9782 14.654C91.8742 14.9648 91.7076 15.2511 91.4862 15.4937C91.266 15.7363 90.9965 15.9298 90.6969 16.0617C90.3972 16.1948 90.0718 16.263 89.7442 16.263C89.4155 16.263 89.0913 16.1948 88.7905 16.0617C88.4908 15.9298 88.2214 15.7363 88.0011 15.4937C87.7797 15.2511 87.6131 14.9648 87.5091 14.654C87.4063 14.3432 87.3694 14.0144 87.4018 13.6891ZM91.0781 13.6891C91.0781 12.6157 90.594 11.9873 89.7454 11.9873C88.8934 11.9873 88.4137 12.6157 88.4137 13.6891C88.4137 14.7714 88.8934 15.3942 89.7454 15.3942C90.594 15.3942 91.0781 14.7669 91.0781 13.6891Z" fill="white"/>
<path d="M93.4004 11.2147H94.3441V12.0007H94.4167C94.5409 11.7189 94.7511 11.4819 95.0161 11.3231C95.2822 11.1655 95.5908 11.0939 95.8994 11.1185C96.1409 11.1006 96.3835 11.1364 96.6094 11.2247C96.8352 11.3131 97.0376 11.4506 97.2031 11.6273C97.3686 11.805 97.4916 12.0164 97.5631 12.2467C97.6347 12.4781 97.6537 12.7219 97.6179 12.9612V16.1679H96.6384V13.206C96.6384 12.4099 96.2918 12.0141 95.5662 12.0141C95.4018 12.0074 95.2386 12.0354 95.0865 12.0957C94.9333 12.1572 94.7969 12.2512 94.684 12.3708C94.5711 12.4893 94.4861 12.6313 94.4335 12.7867C94.381 12.9422 94.3631 13.1065 94.3799 13.2698V16.1679H93.4004V11.2147Z" fill="white"/>
<path d="M103.158 9.98132V11.237H104.235V12.0599H103.158V14.6069C103.158 15.1258 103.373 15.3527 103.86 15.3527C103.985 15.3527 104.111 15.3449 104.235 15.3304V16.1455C104.058 16.1768 103.88 16.1935 103.701 16.1947C102.611 16.1947 102.176 15.8123 102.176 14.8574V12.0599H101.388V11.237H102.176V9.98132H103.158Z" fill="white"/>
<path d="M105.574 9.2804H106.546V12.0108H106.624C106.754 11.7257 106.97 11.4864 107.24 11.3277C107.512 11.1689 107.825 11.0973 108.138 11.123C108.378 11.1096 108.619 11.1499 108.842 11.2404C109.065 11.331 109.266 11.4685 109.429 11.6452C109.593 11.8219 109.715 12.0321 109.787 12.2602C109.86 12.4894 109.881 12.732 109.849 12.9702V16.168H108.868V13.2106C108.868 12.42 108.498 12.0186 107.806 12.0186C107.637 12.0052 107.467 12.0287 107.31 12.0869C107.151 12.145 107.007 12.2367 106.887 12.3563C106.768 12.476 106.677 12.6202 106.62 12.779C106.562 12.9377 106.54 13.1066 106.555 13.2743V16.168H105.574V9.2804Z" fill="white"/>
<path d="M115.564 14.8307C115.43 15.2824 115.142 15.6749 114.748 15.9365C114.355 16.1982 113.882 16.3145 113.411 16.263C113.084 16.272 112.758 16.2093 112.457 16.0796C112.158 15.9511 111.888 15.7576 111.67 15.515C111.452 15.2713 111.289 14.9839 111.194 14.6719C111.098 14.3589 111.072 14.0301 111.117 13.707C111.073 13.3828 111.1 13.0518 111.195 12.7387C111.29 12.4257 111.452 12.1372 111.669 11.8912C111.887 11.6463 112.154 11.4507 112.454 11.3165C112.754 11.1834 113.078 11.1163 113.407 11.1186C114.789 11.1186 115.623 12.06 115.623 13.6153V13.9575H112.115V14.0123C112.1 14.1934 112.123 14.3768 112.182 14.5489C112.242 14.7211 112.338 14.8799 112.462 15.013C112.586 15.1471 112.738 15.2522 112.906 15.3249C113.073 15.3965 113.255 15.4323 113.438 15.4311C113.673 15.4591 113.91 15.4166 114.12 15.3093C114.331 15.203 114.505 15.0365 114.62 14.8307H115.564ZM112.115 13.2341H114.624C114.637 13.0675 114.613 12.9009 114.557 12.7443C114.501 12.5867 114.413 12.4435 114.298 12.3228C114.183 12.202 114.043 12.1059 113.889 12.0421C113.734 11.9784 113.569 11.9471 113.401 11.9505C113.232 11.9482 113.063 11.9807 112.907 12.0444C112.749 12.1081 112.607 12.202 112.486 12.3217C112.367 12.4413 112.272 12.5833 112.208 12.741C112.144 12.8975 112.113 13.0652 112.115 13.2341Z" fill="white"/>
</g>
</svg>
