<svg width="132" height="44" viewBox="0 0 132 44" fill="none" xmlns="http://www.w3.org/2000/svg">
<path d="M123.2 0H8.80002C3.93991 0 0 3.93989 0 8.79999V35.2C0 40.0601 3.93991 44 8.80002 44H123.2C128.06 44 132 40.0601 132 35.2V8.79999C132 3.93989 128.06 0 123.2 0Z" fill="#181818"/>
<path d="M42.914 10.9449C42.8684 10.7912 42.8047 10.6532 42.7247 10.5321C42.6458 10.4079 42.5506 10.3026 42.4383 10.2152C42.3289 10.1278 42.2024 10.0625 42.0597 10.0183C41.916 9.97298 41.7611 9.94981 41.5921 9.94981C41.2895 9.94981 41.0202 10.0288 40.7844 10.1867C40.5476 10.3447 40.3613 10.5763 40.2257 10.8828C40.0921 11.1871 40.0253 11.5577 40.0253 11.9947C40.0253 12.4359 40.0921 12.8098 40.2257 13.1151C40.3593 13.4216 40.5455 13.6543 40.7844 13.8143C41.0223 13.9723 41.2986 14.0502 41.6144 14.0502C41.8998 14.0502 42.1478 13.9933 42.3563 13.8796C42.5668 13.7659 42.7288 13.6037 42.8431 13.3952C42.9565 13.1836 43.0132 12.9361 43.0132 12.6529L43.2439 12.6908H41.7156V11.8631H44V12.5655C44 13.0646 43.8978 13.4974 43.6923 13.8628C43.4869 14.2271 43.2045 14.5093 42.8452 14.7062C42.4858 14.9021 42.0739 15 41.6083 15C41.0901 15 40.6346 14.88 40.2429 14.6378C39.8523 14.3945 39.5466 14.0502 39.327 13.6027C39.1093 13.1541 39 12.6223 39 12.0063C39 11.5346 39.0638 11.1134 39.1923 10.7427C39.3229 10.3721 39.5041 10.0572 39.7369 9.79923C39.9697 9.53809 40.2429 9.34117 40.5557 9.20533C40.8695 9.06844 41.2095 9 41.578 9C41.8897 9 42.1802 9.04844 42.4494 9.14321C42.7186 9.23587 42.9585 9.3696 43.167 9.5423C43.3775 9.71499 43.5506 9.92032 43.6862 10.1583C43.8219 10.3963 43.9109 10.6585 43.9535 10.9449H42.914Z" fill="white"/>
<path d="M46 15V9H49.9758V9.91092H47.108V11.5402H49.7703V12.4511H47.108V14.0891H50V15H46Z" fill="white"/>
<path d="M51 9.91092V9H55V9.91092H53.4503V15H52.5497V9.91092H51Z" fill="white"/>
<path d="M60 9V15H59V9H60Z" fill="white"/>
<path d="M61 9.91092V9H66V9.91092H64.0629V15H62.9371V9.91092H61Z" fill="white"/>
<path d="M74 12C74 12.6297 73.8685 13.1688 73.6044 13.6174C73.3438 14.0639 72.9869 14.4061 72.5338 14.6441C72.083 14.881 71.5723 15 71.0006 15C70.4289 15 69.9159 14.881 69.4639 14.6441C69.0131 14.404 68.6563 14.0607 68.3921 13.6143C68.1315 13.1657 68 12.6276 68 12C68 11.3714 68.1315 10.8333 68.3921 10.3868C68.6563 9.93717 69.0131 9.59495 69.4639 9.35697C69.9159 9.11899 70.4289 9 71.0006 9C71.5723 9 72.083 9.11899 72.5338 9.35697C72.9869 9.59495 73.3438 9.93717 73.6044 10.3868C73.8685 10.8333 74 11.3714 74 12ZM72.8108 12C72.8108 11.5577 72.7333 11.1839 72.5784 10.8796C72.4257 10.5732 72.2133 10.3426 71.9409 10.1867C71.6686 10.0288 71.3551 9.94981 71.0006 9.94981C70.6449 9.94981 70.3315 10.0288 70.0603 10.1867C69.7879 10.3426 69.5743 10.5732 69.4193 10.8796C69.2655 11.1839 69.1892 11.5577 69.1892 12C69.1892 12.4433 69.2655 12.8182 69.4193 13.1236C69.5743 13.4279 69.7879 13.6595 70.0603 13.8164C70.3315 13.9723 70.6449 14.0502 71.0006 14.0502C71.3551 14.0502 71.6686 13.9723 71.9409 13.8164C72.2133 13.6595 72.4257 13.4279 72.5784 13.1236C72.7333 12.8182 72.8108 12.4433 72.8108 12Z" fill="white"/>
<path d="M80 9V15H79.0197L76.1521 10.9138H76.1018V15H75V9H75.9858L78.8501 13.0905H78.9037V9H80Z" fill="white"/>
<path d="M105.845 32.9302H107.738V20.4509H105.845V32.9302ZM122.895 24.9463L120.725 30.3566H120.66L118.408 24.9463H116.368L119.746 32.5079L117.82 36.7148H119.794L125 24.9463H122.895ZM112.159 31.5129C111.541 31.5129 110.675 31.2079 110.675 30.4532C110.675 29.49 111.752 29.1203 112.681 29.1203C113.513 29.1203 113.906 29.297 114.411 29.5383C114.264 30.6945 113.252 31.5129 112.159 31.5129ZM112.388 24.6732C111.018 24.6732 109.599 25.2677 109.011 26.5841L110.691 27.2741C111.05 26.5841 111.718 26.3592 112.421 26.3592C113.399 26.3592 114.395 26.9373 114.411 27.9652V28.0936C114.068 27.9005 113.334 27.612 112.437 27.612C110.625 27.612 108.782 28.5905 108.782 30.4214C108.782 32.091 110.267 33.1671 111.931 33.1671C113.202 33.1671 113.906 32.6044 114.345 31.9462H114.411V32.9104H116.239V28.1254C116.239 25.9095 114.557 24.6732 112.388 24.6732ZM100.69 26.4656H97.9978V22.1874H100.69C102.105 22.1874 102.908 23.3403 102.908 24.3265C102.908 25.2941 102.105 26.4656 100.69 26.4656ZM100.641 20.4509H96.1058V32.9302H97.9978V28.2022H100.641C102.739 28.2022 104.801 26.7081 104.801 24.3265C104.801 21.945 102.739 20.4509 100.641 20.4509ZM75.9078 31.5151C74.6005 31.5151 73.5056 30.4378 73.5056 28.958C73.5056 27.4617 74.6005 26.3691 75.9078 26.3691C77.1995 26.3691 78.2122 27.4617 78.2122 28.958C78.2122 30.4378 77.1995 31.5151 75.9078 31.5151ZM78.081 25.6451H78.0165C77.5908 25.1471 76.7737 24.6962 75.7444 24.6962C73.5867 24.6962 71.6092 26.5622 71.6092 28.958C71.6092 31.3385 73.5867 33.188 75.7444 33.188C76.7737 33.188 77.5908 32.7371 78.0165 32.2226H78.081V32.8337C78.081 34.4583 77.1995 35.3271 75.7777 35.3271C74.6172 35.3271 73.898 34.5065 73.6034 33.8154L71.9538 34.4901C72.4273 35.6156 73.6846 37 75.7777 37C77.9999 37 79.8796 35.7121 79.8796 32.5759V24.954H78.081V25.6451ZM81.1868 32.9302H83.0821V20.4509H81.1868V32.9302ZM85.8767 28.8132C85.8278 27.1732 87.1684 26.3362 88.1322 26.3362C88.8848 26.3362 89.5217 26.707 89.7352 27.2368L85.8767 28.8132ZM91.7605 27.3981C91.4015 26.4492 90.3065 24.6962 88.0666 24.6962C85.8445 24.6962 83.9981 26.4174 83.9981 28.9415C83.9981 31.322 85.8278 33.188 88.2789 33.188C90.2565 33.188 91.4015 31.9978 91.875 31.3067L90.4043 30.3413C89.9141 31.0489 89.2438 31.5151 88.2789 31.5151C87.3152 31.5151 86.6293 31.0807 86.188 30.2283L91.9561 27.8808L91.7605 27.3981ZM45.7986 25.9994V27.8007H50.1784C50.0483 28.8132 49.7048 29.5526 49.1813 30.0681C48.5443 30.6945 47.5472 31.3867 45.7986 31.3867C43.1019 31.3867 40.9942 29.2476 40.9942 26.594C40.9942 23.9404 43.1019 21.8013 45.7986 21.8013C47.2537 21.8013 48.3153 22.364 49.1001 23.088L50.3918 21.8177C49.2969 20.7876 47.8418 20 45.7986 20C42.1047 20 39 22.9597 39 26.594C39 30.2283 42.1047 33.188 45.7986 33.188C47.7929 33.188 49.2969 32.544 50.4729 31.3385C51.6824 30.1482 52.0581 28.4753 52.0581 27.1249C52.0581 26.707 52.0259 26.3208 51.9603 25.9994H45.7986ZM57.0381 31.5151C55.7298 31.5151 54.6026 30.4543 54.6026 28.9415C54.6026 27.4145 55.7298 26.3691 57.0381 26.3691C58.3454 26.3691 59.4726 27.4145 59.4726 28.9415C59.4726 30.4543 58.3454 31.5151 57.0381 31.5151ZM57.0381 24.6962C54.6515 24.6962 52.7062 26.481 52.7062 28.9415C52.7062 31.3867 54.6515 33.188 57.0381 33.188C59.4237 33.188 61.3679 31.3867 61.3679 28.9415C61.3679 26.481 59.4237 24.6962 57.0381 24.6962ZM66.4846 31.5151C65.1785 31.5151 64.0502 30.4543 64.0502 28.9415C64.0502 27.4145 65.1785 26.3691 66.4846 26.3691C67.793 26.3691 68.9202 27.4145 68.9202 28.9415C68.9202 30.4543 67.793 31.5151 66.4846 31.5151ZM66.4846 24.6962C64.0991 24.6962 62.1549 26.481 62.1549 28.9415C62.1549 31.3867 64.0991 33.188 66.4846 33.188C68.8713 33.188 70.8166 31.3867 70.8166 28.9415C70.8166 26.481 68.8713 24.6962 66.4846 24.6962Z" fill="white"/>
<path d="M18.134 22L7 33.7731C7.00115 33.7754 7.00113 33.7777 7.00227 33.78C7.34376 35.0589 8.51491 36 9.90608 36C10.4619 36 10.9844 35.85 11.4325 35.5878L11.468 35.5661L24 28.3611L18.134 22Z" fill="#EB3131"/>
<path d="M29.4435 19.997L29.4332 19.9904L24.0576 17L18 22.1703L24.0781 28L29.4264 25.0402C30.3635 24.555 31 23.6064 31 22.5131C31 21.4276 30.3726 20.4845 29.4435 19.997Z" fill="#F6B60B"/>
<path d="M7.1065 12C7.03668 12.2313 7 12.4734 7 12.7241V32.2759C7 32.5266 7.03668 32.7697 7.1065 33L19 22.2186L7.1065 12Z" fill="#5778C5"/>
<path d="M18.2301 23L24 17.0019L11.4666 9.44741C11.0111 9.16389 10.4787 9 9.9108 9C8.51794 9 7.34306 9.98454 7.00116 11.322L7 11.3256L18.2301 23Z" fill="#3BAD49"/>
</svg>
